<svg width="22" height="22" viewBox="0 0 22 22" fill="none" xmlns="http://www.w3.org/2000/svg">
<rect width="22" height="22" fill="#1E1E1E"/>
<g id="Home" clip-path="url(#clip0_0_1)">
<rect width="1366" height="801" transform="translate(-936 -164)" fill="#F0F2F5"/>
<g id="Frame 1">
<g id="Rectangle" filter="url(#filter0_d_0_1)">
<path d="M-598 -6C-598 -19.2548 -587.255 -30 -574 -30H68C81.2548 -30 92 -19.2548 92 -6V30C92 43.2548 81.2548 54 68 54H-574C-587.255 54 -598 43.2548 -598 30V-6Z" fill="white"/>
</g>
<g id="Rectangle_2" filter="url(#filter1_d_0_1)">
<path d="M-598 93C-598 79.7452 -587.255 69 -574 69H68C81.2548 69 92 79.7452 92 93V129C92 142.255 81.2548 153 68 153H-574C-587.255 153 -598 142.255 -598 129V93Z" fill="white"/>
</g>
<g id="Frame" clip-path="url(#clip1_0_1)">
<path id="Vector" fill-rule="evenodd" clip-rule="evenodd" d="M14.8787 0.87868L6.29289 9.46447C6.10536 9.652 6 9.90636 6 10.1716V14.1716C6 14.7239 6.44772 15.1716 7 15.1716H11C11.2652 15.1716 11.5196 15.0662 11.7071 14.8787L20.2929 6.29289C21.4645 5.12132 21.4645 3.22183 20.2929 2.05025L19.1213 0.87868C17.9497 -0.292893 16.0503 -0.292893 14.8787 0.87868ZM18.8787 3.46447L18.9619 3.55867C19.2669 3.95096 19.2392 4.5182 18.8787 4.87868L10.584 13.1716H8V10.5856L16.2929 2.29289C16.6834 1.90237 17.3166 1.90237 17.7071 2.29289L18.8787 3.46447ZM10.0308 2.17157C10.0308 1.61929 9.5831 1.17157 9.03081 1.17157H5L4.78311 1.17619C2.12231 1.28975 0 3.48282 0 6.17157V16.1716L0.00461951 16.3885C0.118182 19.0493 2.31125 21.1716 5 21.1716H15L15.2169 21.167C17.8777 21.0534 20 18.8603 20 16.1716V11.2533L19.9933 11.1366C19.9355 10.6393 19.5128 10.2533 19 10.2533C18.4477 10.2533 18 10.701 18 11.2533V16.1716L17.9949 16.3478C17.9037 17.9227 16.5977 19.1716 15 19.1716H5L4.82373 19.1665C3.24892 19.0752 2 17.7693 2 16.1716V6.17157L2.00509 5.9953C2.09634 4.42049 3.40232 3.17157 5 3.17157H9.03081L9.14743 3.16485C9.64477 3.10708 10.0308 2.68441 10.0308 2.17157Z" fill="#0A1629"/>
</g>
</g>
</g>
<defs>
<filter id="filter0_d_0_1" x="-656" y="-82" width="806" height="200" filterUnits="userSpaceOnUse" color-interpolation-filters="sRGB">
<feFlood flood-opacity="0" result="BackgroundImageFix"/>
<feColorMatrix in="SourceAlpha" type="matrix" values="0 0 0 0 0 0 0 0 0 0 0 0 0 0 0 0 0 0 127 0" result="hardAlpha"/>
<feOffset dy="6"/>
<feGaussianBlur stdDeviation="29"/>
<feColorMatrix type="matrix" values="0 0 0 0 0.768627 0 0 0 0 0.796078 0 0 0 0 0.839216 0 0 0 0.106 0"/>
<feBlend mode="normal" in2="BackgroundImageFix" result="effect1_dropShadow_0_1"/>
<feBlend mode="normal" in="SourceGraphic" in2="effect1_dropShadow_0_1" result="shape"/>
</filter>
<filter id="filter1_d_0_1" x="-656" y="17" width="806" height="200" filterUnits="userSpaceOnUse" color-interpolation-filters="sRGB">
<feFlood flood-opacity="0" result="BackgroundImageFix"/>
<feColorMatrix in="SourceAlpha" type="matrix" values="0 0 0 0 0 0 0 0 0 0 0 0 0 0 0 0 0 0 127 0" result="hardAlpha"/>
<feOffset dy="6"/>
<feGaussianBlur stdDeviation="29"/>
<feColorMatrix type="matrix" values="0 0 0 0 0.768627 0 0 0 0 0.796078 0 0 0 0 0.839216 0 0 0 0.106 0"/>
<feBlend mode="normal" in2="BackgroundImageFix" result="effect1_dropShadow_0_1"/>
<feBlend mode="normal" in="SourceGraphic" in2="effect1_dropShadow_0_1" result="shape"/>
</filter>
<clipPath id="clip0_0_1">
<rect width="1366" height="801" fill="white" transform="translate(-936 -164)"/>
</clipPath>
<clipPath id="clip1_0_1">
<rect width="22" height="22" fill="white"/>
</clipPath>
</defs>
</svg>
